<?xml version="1.0" standalone="no"?>
<!DOCTYPE svg PUBLIC "-//W3C//DTD SVG 20010904//EN"
 "http://www.w3.org/TR/2001/REC-SVG-20010904/DTD/svg10.dtd">
<svg version="1.0" xmlns="http://www.w3.org/2000/svg"
 width="372.000000pt" height="372.000000pt" viewBox="0 0 372.000000 372.000000"
 preserveAspectRatio="xMidYMid meet">
<metadata>
Created by potrace 1.11, written by Peter Selinger 2001-2013
</metadata>
<g transform="translate(0.000000,372.000000) scale(0.100000,-0.100000)"
fill="#000000" stroke="none">
<path d="M2661 3692 l-1024 -2 -803 -796 -804 -796 0 -1034 0 -1034 1831 -2
c1007 -2 1832 -1 1832 2 1 3 0 828 -3 1835 l-5 1830 -1024 -3z m392 -1677 c81
-14 192 -48 210 -65 7 -6 -45 -205 -59 -232 -3 -3 -41 8 -87 25 -77 29 -91 31
-217 32 -122 0 -140 -2 -183 -24 -26 -12 -60 -39 -75 -59 -24 -31 -27 -45 -27
-107 0 -63 3 -76 28 -108 31 -41 98 -83 197 -123 36 -15 120 -53 187 -86 194
-94 276 -191 305 -356 15 -89 0 -199 -39 -280 -61 -127 -203 -228 -373 -267
-101 -23 -299 -23 -400 0 -82 19 -226 71 -235 85 -3 5 9 63 26 129 l32 120 41
-21 c73 -37 179 -68 274 -80 229 -28 372 56 372 218 0 126 -60 180 -313 279
-308 122 -444 299 -407 531 47 292 361 456 743 389z m-1033 -605 c0 -496 -3
-603 -16 -668 -40 -201 -156 -331 -335 -378 -108 -29 -371 -20 -427 15 -8 5
-6 37 7 121 15 103 19 115 37 113 10 -1 48 -7 84 -13 143 -25 261 16 308 105
40 78 42 109 42 713 l0 582 150 0 150 0 0 -590z"/>
</g>
</svg>
